<?xml version="1.0" encoding="utf-8"?>
<!-- Generator: Adobe Illustrator 16.0.0, SVG Export Plug-In . SVG Version: 6.00 Build 0)  -->
<!DOCTYPE svg PUBLIC "-//W3C//DTD SVG 1.1//EN" "http://www.w3.org/Graphics/SVG/1.1/DTD/svg11.dtd" [
	<!ENTITY ns_extend "http://ns.adobe.com/Extensibility/1.0/">
	<!ENTITY ns_ai "http://ns.adobe.com/AdobeIllustrator/10.0/">
	<!ENTITY ns_graphs "http://ns.adobe.com/Graphs/1.0/">
	<!ENTITY ns_vars "http://ns.adobe.com/Variables/1.0/">
	<!ENTITY ns_imrep "http://ns.adobe.com/ImageReplacement/1.0/">
	<!ENTITY ns_sfw "http://ns.adobe.com/SaveForWeb/1.0/">
	<!ENTITY ns_custom "http://ns.adobe.com/GenericCustomNamespace/1.0/">
	<!ENTITY ns_adobe_xpath "http://ns.adobe.com/XPath/1.0/">
]>
<svg version="1.1" id="图层_1" xmlns:x="&ns_extend;" xmlns:i="&ns_ai;" xmlns:graph="&ns_graphs;"
	 xmlns="http://www.w3.org/2000/svg" xmlns:xlink="http://www.w3.org/1999/xlink" x="0px" y="0px" width="595.279px"
	 height="595.281px" viewBox="0 0 595.279 595.281" enable-background="new 0 0 595.279 595.281" xml:space="preserve">
<metadata>
	<sfw  xmlns="&ns_sfw;">
		<slices></slices>
		<sliceSourceBounds  x="17.521" y="17.521" width="559.959" height="559.959" bottomLeftOrigin="true"></sliceSourceBounds>
	</sfw>
</metadata>
<g>
	<g>
		<path fill="#005BAC" d="M74.747,401.71l-9.322-22.906l1.556-0.778c0.772,2.72,2.328,3.883,4.269,2.72l19.029-7.767
			c1.942-0.777,2.328-2.333,1.164-5.052l1.555-0.772l5.825,14.368l-1.555,0.772c-1.164-2.72-2.328-3.883-4.27-2.72l-19.029,7.771
			c-1.941,0.387-2.333,1.941-1.555,3.492c1.941,3.883,5.824,5.438,12.041,4.66l0.777,1.556L74.747,401.71z"/>
		<path fill="#005BAC" d="M96.882,416.855l5.824-8.152l-9.708,1.551L96.882,416.855L96.882,416.855z M83.285,418.019l-5.824-10.094
			l1.555-0.777c1.555,1.941,3.883,2.333,7.38,1.941l24.462-3.491l1.164,1.941l-16.31,22.521c-1.164,1.555-1.55,3.104-0.386,5.047
			l-1.555,0.777l-7.766-13.204l1.555-0.778l0.778,1.556c0.778,1.556,1.55,1.941,2.719,1.556c0.386,0,0.386-0.392,0.772-0.778
			c0.392,0,0.392-0.392,0.392-0.392l3.105-4.269l-4.661-8.152l-3.491,0.386c-0.778,0-1.556,0-2.719,0.778
			c-1.169,0.777-1.169,1.941-0.392,3.105l1.164,1.941L83.285,418.019z"/>
		<path fill="#005BAC" d="M118.624,422.294l1.164-1.164l6.603,8.152l-6.603,24.076l0,0l11.655-9.708
			c1.55-1.163,1.55-3.105-0.392-5.824l1.164-1.164l6.994,8.544l-1.169,1.164c-1.941-1.941-3.883-2.328-5.047-0.778l-19.029,15.532
			l-2.714-3.105l7.375-27.181l0,0l-14.368,11.649c-1.942,1.163-1.55,3.104,1.164,5.824l-1.164,1.164l-7.375-8.931l1.164-1.163
			c1.55,2.327,3.492,2.719,5.047,1.55l15.924-13.199C120.957,426.177,120.957,424.622,118.624,422.294z"/>
		<path fill="#005BAC" d="M146.583,476.27l-7.766,8.152L121.73,468.89l1.555-1.55l28.736-8.158l-1.941-1.941
			c-4.661-3.883-8.93-4.27-12.813-0.386l-1.555-1.164l7.38-7.38l15.918,14.754l-1.941,2.333l-27.567,7.767
			c5.825,5.824,10.872,6.602,16.31,1.941L146.583,476.27z"/>
		<path fill="#005BAC" d="M163.67,482.872l7.766,5.438l5.047-6.993c1.169-1.551,0.778-3.105-1.55-4.27l0.778-1.556l12.427,8.544
			l-0.778,1.556c-2.333-1.941-4.274-1.941-5.052,0l-11.649,17.082c-1.55,1.556-0.772,3.11,1.941,4.66l-0.772,1.556l-12.427-8.544
			l0.772-1.555c1.941,1.555,3.497,1.555,4.661-0.387l5.825-8.152l-7.766-5.438l-5.825,8.152c-1.55,1.556-0.778,3.111,1.556,4.274
			l-0.778,1.551l-12.427-8.539l0.778-1.555c2.328,1.941,3.883,1.941,5.047,0l11.649-17.088c1.164-1.55,0.777-3.105-1.55-4.66
			l0.772-1.551l12.427,8.544l-0.772,1.55c-2.333-1.55-3.883-1.55-4.661,0.392L163.67,482.872z"/>
		<path fill="#005BAC" d="M191.629,502.287c-3.883,8.158-3.883,13.205,0.778,15.146c4.269,1.941,8.152-0.778,12.035-8.93
			c3.888-8.158,3.497-13.205-0.386-15.146C199.395,491.416,195.512,494.135,191.629,502.287L191.629,502.287z M184.641,498.791
			c4.661-7.767,11.649-10.48,20.193-7.375c7.766,4.661,10.094,11.649,6.988,20.193c-5.047,7.766-11.649,10.093-20.193,6.988
			C183.863,514.328,181.144,507.334,184.641,498.791z"/>
		<path fill="#005BAC" d="M220.752,499.568l14.368,4.274l-0.386,1.55c-3.105-1.163-4.661-0.386-5.047,1.556l-5.052,17.087
			c-0.772,3.492,0.392,5.825,4.274,7.375c4.661,1.556,7.766-0.386,9.321-5.047l4.655-15.146c0.778-1.942-0.386-3.105-3.491-4.661
			l0.386-1.55l10.485,3.105l-0.386,1.555c-3.105-0.392-4.661,0.387-5.047,1.942l-4.274,14.754c-1.941,6.216-6.21,7.766-13.59,5.824
			c-6.988-2.327-9.708-5.824-8.158-11.263l5.052-16.31c0.778-1.941-0.392-3.105-3.111-3.883V499.568z"/>
		<path fill="#005BAC" d="M281.721,512.772h15.141v1.556c-3.105,0-4.661,0.772-4.27,2.714v17.865c0,3.497,1.941,5.438,6.211,5.824
			c4.66,0,7.38-2.327,7.38-7.38v-15.532c0.386-1.941-1.164-3.105-4.661-3.491v-1.556h10.871v1.556
			c-3.104,0.386-4.269,1.55-3.883,3.491v15.146c0,6.21-3.883,9.321-11.257,9.321c-7.38,0-10.877-2.72-11.264-8.158v-17.087
			c0-1.941-1.163-3.105-3.883-2.714L281.721,512.772z"/>
		<path fill="#005BAC" d="M313.949,514.714l-0.386-1.555l10.485-1.55l17.082,17.859l0,0l-2.328-15.141
			c0-1.941-1.556-2.719-5.047-2.719l-0.392-1.556l10.877-1.55l0.386,1.55c-2.719,0.777-3.883,1.941-3.496,3.883l3.496,24.468
			l-3.883,0.771l-19.807-20.192l0,0l2.72,18.251c0,2.333,1.941,2.72,5.438,1.941l0.386,1.556l-11.649,1.556l-0.386-1.556
			c3.105-0.386,4.27-1.164,3.883-3.497l-3.105-20.192C318.611,514.714,317.055,513.936,313.949,514.714z"/>
		<path fill="#005BAC" d="M371.031,531.802l-15.141,4.27l-0.392-1.551c2.719-0.392,3.883-1.941,3.105-3.883l-5.434-19.807
			c-0.392-1.941-1.941-2.719-4.66-1.556l-0.387-1.55l15.141-4.274l0.392,1.556c-3.11,0.777-3.883,1.941-3.11,3.883l5.438,19.807
			c0.391,1.941,1.941,2.714,4.66,1.55L371.031,531.802z"/>
		<path fill="#005BAC" d="M366.762,503.843l-0.777-1.556l13.204-5.438l0.777,1.555c-2.719,1.164-3.497,1.941-3.11,3.105
			c-0.387,0,3.497,4.661,12.04,14.76l0,0c0-0.777,0-1.556,0-2.719c-0.386-11.649-0.777-16.701-0.777-15.532
			c-0.777-1.556-1.941-1.556-4.27-0.778l-0.777-1.555l8.93-3.492l0.778,1.551c-1.942,1.163-2.72,2.333-2.328,4.274l0.772,26.789
			l-3.105,1.17l-16.696-20.193C370.259,503.451,368.703,503.065,366.762,503.843z"/>
		<path fill="#005BAC" d="M416.469,478.212l5.433,8.93l-1.55,0.777c-4.274-4.269-8.544-5.047-13.204-2.327
			c-2.328,1.164-2.72,2.719-1.556,4.269l4.274,7.38c3.491-1.555,4.661-4.274,3.491-7.766l1.556-0.777l5.824,10.485l-1.55,0.777
			c-2.333-2.72-5.438-3.11-8.544-1.169l5.047,8.543c0.778,1.941,2.328,1.941,4.27,0.392c4.661-2.719,6.216-7.38,4.661-13.59
			l1.555-0.778l5.434,10.094l-23.685,13.591l-0.777-1.55c2.719-1.164,3.496-2.72,2.327-4.661l-10.094-17.865
			c-0.777-1.941-2.719-1.941-5.047-0.386l-0.777-1.556L416.469,478.212z"/>
		<path fill="#005BAC" d="M432.387,472.001l5.824,7.375c4.274-3.105,5.053-6.211,2.333-9.316c-2.333-2.719-5.052-3.497-7.38-1.556
			C431.61,469.668,431.223,470.832,432.387,472.001L432.387,472.001z M456.463,476.656l1.163-1.164
			c2.72,3.497,2.72,6.603-0.771,9.321c-3.111,2.72-6.603,2.328-9.322-1.555c-1.941-2.328-3.496-3.492-4.274-3.492
			c-1.163-0.391-2.327,0-4.269,1.164l5.438,6.988c1.163,2.333,3.104,2.333,5.433,0l1.169,1.164l-12.04,9.708l-1.164-1.164
			c2.327-1.55,3.105-3.105,1.55-5.047l-12.813-16.31c-1.164-1.556-2.72-1.556-5.047,0.386l-1.164-1.164l12.035-9.315
			c5.824-4.274,10.099-4.661,13.591-0.778c2.719,3.884,1.555,7.767-3.883,12.035l0,0c3.496-1.941,6.602-1.941,10.099,0.392
			c3.105,2.328,4.661,3.105,5.047,1.941C458.018,479.376,457.626,478.212,456.463,476.656z"/>
		<path fill="#005BAC" d="M467.726,475.106l-8.158-7.766l1.17-1.164c5.824,3.491,10.485,3.491,13.59,0
			c2.328-2.72,2.72-5.053,0.387-7.38c-1.164-1.164-4.27-0.778-8.544,1.55c-5.824,3.11-10.485,3.497-12.813,0.777
			c-4.27-4.269-4.27-8.93,0-13.977c1.555-1.556,3.105-2.333,5.438-3.105c0.771-0.392,1.163-0.392,1.55-0.777
			c0.392-0.392,0.392-1.169,0-2.333l1.164-1.164l7.38,6.988l-1.164,1.169c-5.047-2.719-9.321-2.719-12.041,0
			c-1.941,2.328-2.327,4.656-0.386,6.598c1.556,1.555,4.269,1.169,8.544-1.164c6.21-3.491,10.871-3.491,13.977-0.777
			c3.883,4.274,3.883,8.935-0.387,13.981c-1.555,1.941-3.496,3.105-5.824,4.27c-0.777,0.392-1.556,0.392-1.556,0.777
			c-0.386,0.392-0.386,1.164,0,2.333L467.726,475.106z"/>
		<path fill="#005BAC" d="M498.404,439.382l-9.707,12.427l-1.164-1.17c1.941-2.327,1.941-3.883,0.386-5.047l-16.31-12.427
			c-1.556-1.163-3.105-0.777-4.66,1.556l-1.164-1.164l9.707-12.427l1.164,1.164c-1.941,2.328-1.941,3.883-0.386,5.047l16.31,12.427
			c1.55,1.556,3.105,0.777,4.66-1.556L498.404,439.382z"/>
		<path fill="#005BAC" d="M477.433,418.411l13.982-24.076l8.93,5.047l-0.777,1.941c-5.438-1.555-9.321-0.777-11.649,3.105
			l19.807,11.649c1.55,1.556,3.105,0.392,5.047-2.714l1.55,0.772l-8.538,14.368l-1.556-0.772c1.941-2.719,1.941-4.66,0-5.83
			l-19.807-11.648c-2.327,3.883-1.163,7.766,3.111,11.648l-1.169,1.556L477.433,418.411z"/>
		<path fill="#005BAC" d="M494.129,393.172l-1.55-0.778l5.433-13.204l1.556,0.777c-0.777,2.328-0.777,3.497,0,3.497
			c0.386,0,0.777,0.387,1.941,0.387c0.392,0,0.392,0,0.777,0l9.708-0.778l-5.825-6.988c-0.777-0.777-1.555-1.164-1.941-1.556
			c-1.163-0.386-1.941,0.392-3.104,2.72l-1.556-0.777l4.274-10.094l1.55,0.777c-0.777,2.714-0.386,4.655,1.164,5.433l9.321,10.485
			l6.988,3.105c1.941,1.169,3.497,0,4.661-3.105l1.555,0.778l-6.602,15.146l-1.556-0.777c1.556-3.105,1.164-5.047-0.777-5.438
			l-7.375-3.105l-12.04,0.777C496.462,390.839,494.521,391.616,494.129,393.172z"/>
	</g>
	<g>
		<path fill="#005BAC" d="M69.309,305.799c4.661,0,8.543-3.498,8.543-8.158c0-4.661-3.883-8.543-8.543-8.543
			s-8.544,3.883-8.544,8.543C60.765,302.301,65.04,305.799,69.309,305.799z"/>
		<path fill="#005BAC" d="M525.585,305.799c4.66,0,8.157-3.498,8.157-8.158c0-4.661-3.497-8.543-8.157-8.543
			c-4.661,0-8.544,3.883-8.544,8.543C517.041,302.301,520.924,305.799,525.585,305.799z"/>
		<path fill="#005BAC" d="M297.64,17.661c154.554,0,279.979,125.431,279.979,279.979c0,154.554-125.426,279.979-279.979,279.979
			C143.092,577.62,17.66,452.194,17.66,297.64C17.66,143.092,143.092,17.661,297.64,17.661L297.64,17.661z M297.64,25.041
			c-150.279,0-272.213,121.934-272.213,272.213c0,150.28,121.934,272.213,272.213,272.213s272.214-121.934,272.214-272.213
			C570.245,146.975,448.311,25.041,297.64,25.041z"/>
		<path fill="#005BAC" d="M297.64,106.976c105.238,0,190.665,85.432,190.665,190.665c0,105.238-85.427,190.67-190.665,190.67
			c-105.233,0-190.665-85.432-190.665-190.67C106.975,192.407,192.407,106.976,297.64,106.976L297.64,106.976z M297.64,112.023
			c-102.514,0-185.618,83.104-185.618,185.618c0,102.52,83.104,185.618,185.618,185.618c102.52,0,185.618-83.099,185.618-185.618
			C483.258,195.127,400.159,112.023,297.64,112.023z"/>
	</g>
	<g>
		<g>
			<path fill="#005BAC" d="M457.626,282.5h-15.141v15.532h15.141V282.5L457.626,282.5z M295.698,166.776h1.556v-3.491h0.777h0.772
				v3.491h1.555v3.883h-1.555v7.766l1.169,3.11v10.48l3.105,3.889v17.082h4.269v32.233h4.661v-3.883h5.047v18.637h69.514v-10.871
				h3.883v3.105h12.813v-3.497h3.884v10.877h54.754v73.391H133.77v-73.391h54.753v-10.877h3.883v3.497h12.813v-3.105h3.883v10.871
				h69.508v-18.637h5.052v3.883h4.655v-32.233h4.274v-17.082l3.105-3.889v-10.48l1.164-3.11v-7.766h-1.551v-3.883H295.698z
				 M457.626,299.196h-19.801v12.427h19.801V299.196L457.626,299.196z M457.626,312.787h-23.298v10.099h7.767v-7.38h4.274v7.38
				h3.491v5.824h7.766V312.787L457.626,312.787z M403.651,282.5v15.532h17.087V282.5H403.651L403.651,282.5z M403.651,299.196
				v12.427h22.912v-12.427H403.651L403.651,299.196z M403.651,312.787v15.923h10.485v-5.824h2.719v-7.38h4.661v7.38h8.93v-10.099
				H403.651L403.651,312.787z M403.651,267.74v13.205h17.087V267.74H403.651L403.651,267.74z M438.99,268.132h-14.368v28.345h4.66
				v12.041h6.211v-12.041h3.497V268.132L438.99,268.132z M403.264,256.091h-12.813v4.274h12.813V256.091L403.264,256.091z
				 M399.768,265.799h-10.094v63.298h10.094V265.799L399.768,265.799z M315.505,280.167h-4.661v7.38h4.661V280.167L315.505,280.167z
				 M385.4,280.167h-4.27v8.93h-5.438v-8.93h-4.66v8.93c-1.942,0-3.492,0-5.434,0v-8.93h-4.66v8.93c-1.942,0-3.497,0-5.438,0v-8.93
				h-4.661v8.93c-1.941,0-3.491,0-5.433,0v-8.93h-4.661v8.93c-1.941,0-3.497,0-5.438,0v-8.93h-4.66v8.93c-1.941,0-3.492,0-5.434,0
				v-8.93h-4.66v7.38h1.555v3.883H385.4V280.167L385.4,280.167z M377.633,292.98h-7.766v13.982h7.766V292.98L377.633,292.98z
				 M368.318,292.98h-7.767v13.982h7.767V292.98L368.318,292.98z M359.382,292.98h-7.767v13.982h7.767V292.98L359.382,292.98z
				 M385.4,292.98h-6.598v13.982h6.598V292.98L385.4,292.98z M385.4,308.126h-58.246v20.584h21.743v-17.479h3.883v17.479h5.053
				v-17.479h3.883v17.479h5.047v-17.479h3.883v17.479h5.047v-17.479h3.883v17.479h5.438v-20.584H385.4z M457.626,267.74h-15.141
				v13.205h15.141V267.74L457.626,267.74z M300.359,287.547h5.047v-7.38h-5.047V287.547L300.359,287.547z M137.653,282.5v15.532
				h15.146V282.5H137.653L137.653,282.5z M137.653,299.196v12.427h19.807v-12.427H137.653L137.653,299.196z M137.653,312.787v15.923
				h7.766v-5.824h3.497v-7.38h4.27v7.38h7.766v-10.099H137.653L137.653,312.787z M192.021,282.5h-17.087v15.532h17.087V282.5
				L192.021,282.5z M192.021,299.196h-22.912v12.427h22.912V299.196L192.021,299.196z M192.021,312.787h-26.795v10.099h8.93v-7.38
				h4.661v7.38h2.719v5.824h10.485V312.787L192.021,312.787z M192.021,267.74h-17.087v13.205h17.087V267.74L192.021,267.74z
				 M156.682,268.132v28.345h3.492v12.041h6.216v-12.041h4.661v-28.345H156.682L156.682,268.132z M192.407,256.091v4.274h12.813
				v-4.274H192.407L192.407,256.091z M195.904,265.799v63.298h10.094v-63.298H195.904L195.904,265.799z M280.166,280.167v7.38h4.661
				v-7.38H280.166L280.166,280.167z M209.881,280.167v11.263h63.297v-3.883h1.55v-7.38h-4.655v8.93c-1.941,0-3.497,0-5.438,0v-8.93
				h-4.661v8.93c-1.941,0-3.491,0-5.433,0v-8.93h-4.661v8.93c-1.941,0-3.497,0-5.438,0v-8.93h-4.661v8.93c-1.941,0-3.491,0-5.433,0
				v-8.93h-4.661v8.93c-1.942,0-3.497,0-5.438,0v-8.93h-4.661v8.93h-5.433v-8.93H209.881L209.881,280.167z M218.038,292.98v13.982
				h7.766V292.98H218.038L218.038,292.98z M226.968,292.98v13.982h7.766V292.98H226.968L226.968,292.98z M235.898,292.98v13.982
				h7.766V292.98H235.898L235.898,292.98z M209.881,292.98v13.982h6.602V292.98H209.881L209.881,292.98z M209.881,308.126v20.584
				h5.438v-17.479h3.883v17.479h5.047v-17.479h3.883v17.479h5.047v-17.479h3.883v17.479h5.052v-17.479h3.883v17.479h21.743v-20.584
				H209.881L209.881,308.126z M137.653,267.74v13.205h15.146V267.74H137.653L137.653,267.74z M295.312,287.547v-7.38h-5.052v7.38
				H295.312L295.312,287.547z M300.745,212.987v-14.754l-3.105-1.942l-3.105,1.942v14.754H300.745L300.745,212.987z
				 M303.464,245.219v-27.572h-11.263v27.572H303.464L303.464,245.219z M312.008,259.974v-9.708h-28.736v9.708H312.008
				L312.008,259.974z M297.64,266.576c1.556,0,2.719,1.164,2.719,2.719v0.777h5.047v-0.777c0-1.556,1.164-2.719,2.72-2.719l0,0
				c1.556,0,2.719,1.164,2.719,2.719v0.777h5.047v-0.777c0-1.556,1.164-2.719,2.72-2.719l0,0c1.555,0,2.719,1.164,2.719,2.719v0.777
				h5.047v-0.777c0-1.556,1.164-2.719,2.72-2.719l0,0c1.55,0,2.719,1.164,2.719,2.719v0.777h5.047v-0.777
				c0-1.556,1.164-2.719,2.719-2.719l0,0c1.551,0,2.72,1.164,2.72,2.719v0.777h5.047v-0.777c0-1.556,1.164-2.719,2.719-2.719l0,0
				c1.55,0,2.714,1.164,2.714,2.719v0.777h5.053v-0.777c0-1.556,1.163-2.719,2.719-2.719l0,0c1.55,0,2.714,1.164,2.714,2.719v0.777
				h5.053v-0.777c0-1.556,1.163-2.719,2.719-2.719l0,0c1.55,0,2.714,1.164,2.714,2.719v0.777h5.052v-0.777
				c0-1.556,1.164-2.719,2.714-2.719l0,0c1.556,0,2.72,1.164,2.72,2.719v0.777h4.274v-6.216H212.986v6.216h4.275v-0.777
				c0-1.556,1.164-2.719,2.719-2.719l0,0c1.55,0,2.719,1.164,2.719,2.719v0.777h5.047v-0.777c0-1.556,1.164-2.719,2.719-2.719l0,0
				c1.55,0,2.714,1.164,2.714,2.719v0.777h5.052v-0.777c0-1.556,1.164-2.719,2.719-2.719l0,0c1.55,0,2.714,1.164,2.714,2.719v0.777
				h5.052v-0.777c0-1.556,1.164-2.719,2.714-2.719l0,0c1.555,0,2.719,1.164,2.719,2.719v0.777h5.047v-0.777
				c0-1.556,1.169-2.719,2.719-2.719l0,0c1.555,0,2.719,1.164,2.719,2.719v0.777h5.047v-0.777c0-1.556,1.164-2.719,2.719-2.719l0,0
				c1.556,0,2.719,1.164,2.719,2.719v0.777h5.047v-0.777c0-1.556,1.164-2.719,2.719-2.719l0,0c1.555,0,2.719,1.164,2.719,2.719
				v0.777h5.047v-0.777c0-1.556,1.164-2.719,2.719-2.719l0,0c1.551,0,2.72,1.164,2.72,2.719v0.777h5.047v-0.777
				C295.312,267.74,296.476,266.576,297.64,266.576L297.64,266.576L297.64,266.576L297.64,266.576z M385.4,278.612v-7.375h-4.27
				v5.433h-5.047v-5.433h-5.052v5.433c-1.551,0-3.492,0-5.047,0v-5.433h-5.047v5.433c-1.556,0-3.497,0-5.047,0v-5.433h-5.053v5.433
				c-1.55,0-3.491,0-5.047,0v-5.433h-5.047v5.433c-1.556,0-3.497,0-5.047,0v-5.433h-5.047v5.433c-1.555,0-3.497,0-5.052,0v-5.433
				h-5.047v5.433c-1.556,0-3.497,0-5.047,0v-5.433h-5.047v5.433c-1.556,0-3.497,0-5.053,0v-5.433h-5.047v5.433h-5.047v-5.433h-5.047
				v5.433c-1.555,0-3.496,0-5.052,0v-5.433h-5.047v5.433c-1.55,0-3.492,0-5.047,0v-5.433h-5.047v5.433c-1.555,0-3.497,0-5.047,0
				v-5.433h-5.052v5.433c-1.55,0-3.491,0-5.047,0v-5.433h-5.047v5.433c-1.555,0-3.497,0-5.047,0v-5.433h-5.052v5.433
				c-1.55,0-3.491,0-5.046,0v-5.433h-5.047v5.433c-1.556,0-3.497,0-5.047,0v-5.433h-5.052v5.433h-5.047v-5.433h-4.27v7.375H385.4
				L385.4,278.612z M315.114,292.207l12.427,8.93v5.824h22.912V292.98h-29.515v-4.269h-45.818v4.269h-29.514v13.982h22.912v-5.824
				l12.427-8.93H315.114L315.114,292.207z M303.078,299.582c4.66,0,8.544,4.275,8.544,9.322v20.192h4.269v-27.959l-3.497-3.497
				h-29.9l-3.492,3.497v27.959h4.27v-20.192c0-5.047,3.883-9.322,8.544-9.322H303.078L303.078,299.582z M305.406,308.904v20.192
				h3.105v-21.749c0-2.713-2.327-5.047-5.047-5.047h-11.263c-2.714,0-5.047,2.334-5.047,5.047v21.749h3.105v-20.192H305.406
				L305.406,308.904z M302.687,329.096v-14.368c0-0.387-0.772-0.778-1.55-0.778h-6.216c-0.778,0-1.551,0.392-1.551,0.778v14.368
				H302.687L302.687,329.096z M275.119,342.686h45.433v3.884h-45.433V342.686L275.119,342.686z M267.74,348.903h60.578v3.883H267.74
				V348.903L267.74,348.903z M283.272,336.862h29.122v3.883h-29.122V336.862z"/>
		</g>
		<path fill="#005BAC" d="M247.16,403.265v-6.211c2.719-1.169,5.438-2.72,8.152-4.661h6.603v31.064h-6.989v-24.462
			C252.207,400.937,249.88,402.487,247.16,403.265L247.16,403.265z M271.237,416.078h7.375c0.391,2.333,1.555,3.883,3.497,3.883
			c3.883,0,5.438-3.491,5.047-10.094c-0.777,0.778-1.941,1.164-2.719,1.556c-0.772,0.386-1.941,0.386-3.491,0.386
			c-5.825-0.386-9.322-3.496-9.708-9.321c0.386-6.602,4.269-10.094,11.649-10.485c7.766,0,12.036,4.661,12.036,13.982
			c0.391,12.427-3.492,18.638-12.036,18.638C274.728,424.622,271.237,421.902,271.237,416.078L271.237,416.078z M277.839,402.101
			c0,3.497,1.55,5.438,4.655,5.438c2.719,0,4.275-1.941,4.275-5.438s-1.556-5.438-4.275-5.825
			C279.78,396.663,278.225,398.604,277.839,402.101L277.839,402.101z M314.336,408.312c0-7.767-1.551-11.649-4.27-11.649
			c-2.72,0-4.27,3.883-4.27,11.649c0,7.766,1.164,11.648,4.27,11.648C312.785,419.961,314.336,416.078,314.336,408.312
			L314.336,408.312z M321.716,408.312c-0.387,10.484-4.27,15.923-11.649,16.31c-7.38,0-11.263-5.434-11.263-16.31
			c0.392-10.872,3.883-16.311,11.263-16.311S321.329,397.44,321.716,408.312L321.716,408.312z M325.599,416.078h7.38
			c0.386,2.333,1.55,3.883,3.497,3.883c3.883,0,5.433-3.491,5.047-10.094c-0.778,0.778-1.942,1.164-2.72,1.556
			c-0.777,0.386-1.941,0.386-3.497,0.386c-5.824-0.386-9.315-3.496-9.707-9.321c0.392-6.602,4.274-10.094,11.648-10.485
			c7.767,0,12.041,4.661,12.041,13.982c0.386,12.427-3.497,18.638-12.041,18.638C329.096,424.622,325.599,421.902,325.599,416.078
			L325.599,416.078z M332.2,402.101c0,3.497,1.556,5.438,4.661,5.438c2.719,0,4.27-1.941,4.27-5.438s-1.551-5.438-4.27-5.825
			C333.756,396.663,332.2,398.604,332.2,402.101z"/>
	</g>
	<g>
		<path fill="#005BAC" d="M197.454,86.783c0-0.386,0.777-0.386,1.555-0.778c0.386,0,0.778-0.386,0.778-0.386
			c0.386,0,0.772,0,1.55,0.386c1.164,0.392,1.941,0.778,2.333,0.392c0.386-0.392,1.164-0.392,1.164-0.778
			c0-0.391,0-0.777,0.386-1.164c0-0.392,0.391-1.169,0.391-1.555c0-0.778,0-1.164,0-1.556c0-0.386,0.772-1.941,1.164-2.328
			c0.386-0.386,2.328-1.555,5.047-1.555c0,0,0.778,0,1.164,0.777c0.392,0.778,0.778,2.333,1.169,2.719
			c0,0.386,0.386,0.386,0.772,0.386c0.777,0,1.169,0,1.555-1.164c0.386-1.164,1.164-2.328,1.555-3.105
			c0.386-0.778,0.386-1.555,0.386-2.328c0-0.778,0-1.941,0.386-2.333c0.392-0.386,0.778-1.164,1.941-1.55
			c1.169-0.392,1.941-0.392,2.333-0.392c0.386,0,1.164,0,1.164,0s0.386,0.392,0.778,0.777c0.386,0.778,0.386,1.164,0.386,1.556
			c0,0,1.556,1.164,3.105,0.386l0.778-0.386c0,0,0.392-0.778,0.777-1.941c0.392-1.169,0.392-1.942,0.392-2.72
			c0.386-0.777,0.386-2.719,0.772-3.883c0.392-1.169,0.778-1.555,1.169-1.941c0.386-0.392,1.164-1.556,1.942-1.941
			c1.941-0.778,3.105,0,5.047,0.386c0.777,0,1.55,0.386,1.941,0.778c0.386,0.386,0.386,0.386,0.386,0.778
			c0,0.386,0,2.719-0.778,4.269c0,0,0,0.778,0,1.164c0,0.391,0.392,1.169,0.392,1.555s0.386,1.556,0.778,1.941c0,0,0,0.386,0,0.778
			c0,0.386,0.386,1.164,0.772,1.941c0.392,0.778,0.778,1.55,1.169,1.941c0,0.386,0.386,0.386,0.772,0.778
			c0.392,0.386,0.392,0.772,0.392,1.164c0,0,0,0.386,0,0.777c0,0.386,0,0.772,0,1.164c0,0.386,0,0.777,0.386,1.164
			c0,0,0.778,0.386,1.164,0.386c1.169,0.778,2.719,3.497,2.719,4.661c0,0.778-1.164,2.333-1.55,2.719
			c-0.392,0.778-1.164,3.105-1.555,3.497c-0.778,0.386-1.941,0.777-2.719,0.386c-0.386-0.386-1.164-1.164-1.164-1.164l-1.555-0.386
			l-1.164,0.386c0,0,0-0.386,0-1.164c0-0.392,0.392-1.164,0-2.333c0-1.164-0.777-3.883-1.55-5.433c0,0-0.392-1.942-0.778-3.111
			c-0.391-1.55-1.555-3.492-1.555-4.269c0-1.164,0-2.328,0-2.719c0-0.386,0-2.328-0.778-3.492c-0.772-1.169-1.164-1.169-1.55-1.169
			c-0.392,0-0.778,0.777-0.778,1.555s-1.164,2.328-0.386,4.661c0,0,0.386,1.164,0.772,1.164c0.392,0,1.169,0.386,1.556,0.777
			c0,0.386,0.777,1.942,0.777,2.328c0,0.392,0,1.942-0.392,2.333c-0.386,0.386-1.164,0.386-1.941,0
			c-0.772-0.391-1.55,0.386-1.941-0.391c-0.386-0.386-1.164-0.778-1.55-1.55c-0.392-1.169-0.392-1.169-0.392-1.941
			c0-0.778-0.772-1.555-0.772-1.941c-0.392-0.392-0.778,0-0.778,0s0,1.55-0.391,1.941c-0.386,0.386,0,1.941,0.391,3.105
			c0.386,1.164,0,1.941,0.386,2.719c0,0.777,1.164,2.719,1.164,3.491c0.392,0.392,2.333,3.883,1.941,5.052
			c-0.386,1.164-0.386,2.328-0.772,3.492c-0.392,0.778-2.719,1.555-2.719,1.555s-1.555-0.392-1.941-1.941
			c-0.777-1.555-1.555-2.719-1.555-3.883c0-0.778-0.386-2.719-0.386-3.497s0-2.719,0-3.492c0-0.777,0.386-2.333,0.386-2.719
			c0-0.777-0.386-1.941-0.778-1.941c0,0-0.778,0.386-0.778,1.941c0,1.55-0.386,2.328-0.386,3.105c0,0.778-0.778,1.941-1.942,1.941
			c0,0-1.164,0-1.555,0.386c-0.386,0.392-0.386,1.556,0,2.333c0,0.386,1.941,5.433,1.941,6.989c0,1.555-1.164,6.602-1.941,7.766
			c0,0-1.55,1.164-2.328,1.942c-0.778,0.777-1.555,0-1.555,0s-2.328-0.778-2.714-1.164c-0.392-0.392-0.778-1.164-1.169-1.555
			c-0.777-0.778-0.386-1.164,0-1.55c0.392-0.392,1.556-1.555,1.556-1.555s1.941-4.269,1.555-6.211c-0.392-1.941,0-5.438-0.778-6.602
			c-0.777-1.164-1.555-2.719-2.333-2.333c-0.777,0-1.164,0.392-1.55,0.778c0,0-0.392,0.392-0.392,0.777l0,0
			c0,0.386-0.386,1.164-0.386,1.164s0,1.164,0,1.555c0,0.386,0.386,1.942,0.778,2.719c0.386,0.386,0.772,1.55,0.772,1.941
			c0,0.386-0.386,0.386-0.386,0.772c-1.556,1.556-1.164,3.883-3.883,2.333c-0.777-0.392-1.941-0.777-1.941-0.777
			s-0.386-0.386-1.555-1.942c-1.55-2.719,0.391-1.555,0-3.105c0-0.392,0-1.164-0.386-1.942c0-0.391-0.386-0.777-0.778-0.777
			C198.231,87.169,197.845,87.169,197.454,86.783z"/>
		<path fill="#005BAC" d="M499.953,162.507v-1.941c0.392,0,1.17-0.392,1.556-0.778c1.164-0.386,2.333-1.164,2.719-1.941
			c0.387-0.386,0.778-1.164,0-1.555l-3.104-3.492c0,0,0-0.392-0.778,0h-0.392v-3.883c0.392-0.392,0.778-0.778,0.392-1.556
			c0,0,0,0-0.392-0.386v-6.602c0.392,0.386,0.778,0.778,0.778,0.778c0.392,0.386,1.555,0.386,1.941,0.386
			c0.392,0,1.169,0,1.941-0.386c0.777-0.392,1.169-0.778,1.555-0.778c0.778,0,1.556-1.164,1.942-1.555l0.386-0.386
			c0.392-0.392,0.777-0.392,0.777,0.386v0.392c0,0.386,0,0.386,0,0.772c0,0.778,0.392,1.556,0.392,2.333c0.387,0.778,0,1.55,0,1.55
			s-0.392,0.392-0.777,1.169c-0.392,0.772-1.164,1.164-1.941,1.55c-0.392,0.391-0.778,0.777-1.164,1.164c0,0,0,0,0,0.392l0,0
			l0.772,1.164c0.777,1.164,0.392,1.164-0.772,1.942c-1.169,1.164-1.941,2.719,0.386,3.105c0.387,0,1.942,0.778,3.105,1.164
			c0.778,0,1.164,0.392,1.556,0.392c0.386,0,0.777,0.386,1.164,0.386c1.556,1.169,0.386,0.777,0.386,2.719
			c0,0.777-0.772,2.333-1.164,2.333c-0.386,0-1.941,0.386-2.719,0c-0.386,0-6.211,0.386-7.374,0.772c-0.778,0-1.556,0-1.942-0.386
			C500.345,162.507,500.345,162.507,499.953,162.507z M474.714,176.484c0.392-0.386,0.777-0.386,0.777-0.386
			s1.556,0.386,2.328,0.386c0.777,0,1.555,0,1.941-0.386c0.392,0,0.777-0.778,0.777-1.164c0.392-0.392,0-0.778-0.386-1.164
			c-0.392-0.778,0.386-1.169,1.164-2.333c0,0-0.387-1.164-1.164-1.942c-0.778-0.777-1.164-1.555-3.105-1.941
			c-0.777-0.386-1.941-0.778-2.72-1.164v10.093H474.714z M499.953,140.759v6.602c-0.386,0-0.386-0.386-1.163-0.386
			c-0.778,0-2.328-0.391-2.72-0.777c-0.386-0.392-0.772-0.392-1.941-0.392c-0.772,0-1.941,0.392-2.328-0.386c0,0,3.105,0,4.27-0.778
			c1.169-0.386,2.72-0.777,2.72-1.55c0.391-0.392,0-0.778,0-1.169c0-0.386,0-0.772-0.387-1.55v-0.778v-0.386
			c0,0,0.387,0,0.777,0.386C499.568,140.373,499.953,140.759,499.953,140.759L499.953,140.759z M499.953,149.302v3.883
			c-1.941,0.392-4.269,0.392-4.655,0.778c-0.392,0,0,0.777,0,0.777c0,0.778,0.387,1.941,0.387,2.328
			c0,0.392-0.387,1.556-0.387,1.942c0,0.391,2.328,0.777,2.328,0.777c0.386,0,1.164,0.778,1.941,0.778h0.386v1.941l0,0
			c-1.941,0.386-0.386,1.164-1.55,3.105c-0.392,0.778-1.556,1.555-2.719,0.778c-0.387-0.392-1.556-1.164-1.556-1.164
			c-0.772,0.386-0.772,0.772-0.386,2.328c0,0.778-1.164,4.274-1.556,4.661c-0.387,0.778-0.772,1.164-2.328,0.778
			c-1.941-0.392-1.941-0.778-2.719-1.555c-0.387-0.386-3.105-3.883-3.105-4.27c-0.392-0.392,1.164,0,1.164,0
			s2.333,0.778,3.105,0.778c0.777,0,1.941-0.778,1.941-1.169c0-0.386-0.387-1.164-0.387-1.55c-0.386-0.392-1.555-0.392-1.555-0.392
			s-2.72,0-3.492,0c-0.392,0-1.555-1.164-3.496-1.55c-0.778-0.392-1.942,0-3.105,0c0,0-1.556-0.392-3.105-0.778v-6.602
			c1.941,1.164,4.655,2.719,6.597,3.497c0.777,0.386,1.556,0.386,2.333,0.772c1.164,0.778,2.328,1.169,3.105,1.941
			c0.777,0.392,1.164,0.778,1.556,1.169c0.386,0.386,1.55,0.772,2.327,0.772c0.392,0,0.777,0,1.556,0c0.386,0,1.164,0,1.55-0.386
			c0.392-0.386,0.392-0.778,0.392-1.164c0-0.778,0-1.164-0.777-2.333c-0.387-0.386-0.778-1.164-1.164-1.164
			c-0.392,0-1.164,0.391-1.164,0.391c-0.392-0.391,0-0.777,0-0.777s0-1.942-1.169-3.105c-0.387-0.392-0.387-0.392-0.772-0.392
			c-0.392,0-1.169,0-1.941-0.386c-0.778,0-1.556-0.392-1.556-0.392l-1.556-0.386h-0.386c-0.386,0-0.777-0.386-1.556-0.386
			c-1.55,0-1.941,0-1.941-0.392c0-0.386,0.392-0.778,0.778-1.55c0.777-0.778,1.163-2.333,1.555-2.719
			c0.387-0.392,4.27-4.661,5.434-5.438c1.169-0.778,4.66-5.047,4.66-5.047l0.392,0.386v0.392c0,0,0,1.164-0.392,1.164
			c0,0,0,0.386-0.386,0.778c-0.778,0.772-1.941,1.941-2.333,2.719c-0.772,0.772-3.492,5.047-3.883,5.824
			c0,0.386-0.387,0.772-0.772,1.164c-0.392,0.386-0.778,0.778-0.778,1.164c0,0.386,0,0.778-0.392,1.164
			c0,0.392,0.392,0.392,0.392,0.392c0.778,0,2.328,0,3.105,0c0.778,0,2.72-0.778,3.105-1.169c0,0,0-1.941,0-2.328
			c0-0.778-0.386-0.778,0.777-1.164c0.387,0,0.778,1.164,0.778,1.164s0.777,1.941,1.164,2.328c0.777,0.392,3.104-0.772,4.66-1.164
			C498.79,150.08,499.953,149.689,499.953,149.302C499.953,149.689,499.953,149.689,499.953,149.302L499.953,149.302z
			 M474.714,150.08c0,0,0.392,0,0.392-0.392c0.772-0.386,1.55-1.164,2.327-1.55c0.778-0.778,1.164-1.164,1.556-1.555
			c0.386-0.386,1.55-1.55,2.328-2.328c0.386-0.392,0.777-0.778,1.163-1.164c0.392-0.392-0.386-1.169-0.386-1.555
			c0-0.386,0-3.105,0-3.883v-0.386c0,0-0.392,0.386-0.777,0.772c-0.778,0.778-1.556,1.941-1.556,2.333
			c-0.387,0.778-0.387,1.164-0.772,1.941c-0.392,0.778-1.556,1.55-1.941,2.328c-0.392,0.778-0.777,1.556-1.169,2.333
			c-0.387,0.386-0.387,0.772-0.772,1.55v1.555H474.714z M460.738,169.109c0.777,0,2.719,0,3.883,0.386
			c1.164,0,3.105,0.386,4.27,1.942c0,0-0.778,1.941-1.164,2.719c-0.387,0.778-0.387,1.942-2.328,3.105
			c-1.941,1.556-1.941,1.164-1.941,1.164s-0.777,0-3.11-1.55c-2.328-1.555-3.105-1.941-3.883-3.105
			c-1.164-0.778-1.941-2.333-1.941-2.333c-0.387,1.555,0,1.164,0.391,2.333c0.387,0.772,1.942,3.105,2.328,3.883
			c0.392,0.772,0.777,1.55,0.777,2.328s0,3.105,0.778,4.661c0,0,1.941,1.941,2.719,1.941c0.772,0,2.714,0,2.714,0
			s3.883,0,5.824-1.941c1.556-2.333,1.556-2.719,2.72-4.274c0.777-1.164,1.555-3.105,2.333-3.883V166.39
			c-1.169-0.392-2.333-1.164-3.883-1.556c-3.111-1.164-6.603-2.328-8.544-3.491c0,0-1.941-0.392-3.497-1.556
			c-1.164-1.164-1.55-3.105-3.491-2.328c-0.392,0-0.392,0.772-0.392,0.772s-0.387,2.333,0,3.497
			c0.777,2.328-0.387,5.047,2.333,6.211C458.796,168.332,459.959,169.109,460.738,169.109L460.738,169.109z M474.714,148.917v1.164
			c0,0-0.387,0-0.387-0.392C474.714,149.689,474.714,149.302,474.714,148.917L474.714,148.917L474.714,148.917z M474.714,155.519
			v6.597c-0.777-0.386-1.941-0.772-2.328-0.772c-0.777-0.392-4.274-2.719-4.274-2.719s-0.772-0.778-0.386-1.164
			c0-0.392,0-1.169,0.386-1.941c0-0.778,0.778-2.719,1.941-2.719c0,0,2.72,1.55,3.497,1.941
			C473.55,154.741,474.327,155.127,474.714,155.519z"/>
		<path fill="#005BAC" d="M125.618,166.776v-4.661c1.55,0,2.714,0,4.269,0.778c0,0,1.556,0.778,1.941,1.941
			c0.386,1.164,0,1.556,0,1.941c0,0.392-1.941,2.333-1.941,2.333s-1.164-0.391-1.941-1.169
			C127.559,167.94,126.781,167.168,125.618,166.776L125.618,166.776z M125.618,154.741c1.55,1.164,3.105,2.328,3.883,2.719
			c1.55,1.164,7.766,6.597,7.766,6.597c0.386,0.391,0.772,0.391,0.772,0.777c0,0.778-0.772,0.778-0.772,1.164
			c-0.392,0.392-0.777,0.392-1.555,0.777c-0.778,0-1.164,0-1.555,0.392c-0.386,0.386-0.772,0.772-1.164,1.55
			c-0.386,0.777-1.164,1.555-1.164,1.555c0,0.386,0.778,0.778,1.164,0.778h0.392c0.386,0,1.55,0,4.269,0.386
			c1.164,0,2.328,0.391,3.105,0.391s1.164,0.386,1.555,0.386c0.386,0.386,1.164,0.386,1.55,0.386c0.391,0,0.777,0,0.777-0.386
			c0.392-0.386,1.169-1.555,1.169-1.941c0-0.392,0.386-1.164,0.772-2.333c0-0.386,0.392-1.164,0-1.55
			c-0.386-0.392-1.941-1.556-2.328-1.942c-0.391-0.391-2.719-1.941-3.497-2.719c-0.778-0.777-8.93-6.602-9.316-6.602
			c-0.392,0-4.661-3.491-5.052-3.883c0,0-0.386-0.386-0.772-0.778V154.741L125.618,154.741z M105.811,189.302
			c0.386,0.386,1.164,0.772,1.555,0.386c0.386-0.386,1.55-0.778,3.105-0.778c0.778,0,2.328-1.55,1.941-1.941
			c-0.392-0.386-0.777-1.164-1.941-1.941c-0.778-0.386-3.105-1.55-4.661-2.719V189.302L105.811,189.302z M125.618,150.858v3.883
			c-1.169-0.777-2.333-1.555-3.497-2.333c-1.164-1.164-2.333-1.941-3.105-2.328c-1.556-1.555-4.661-4.274-5.052-4.661
			c-0.386-0.778-4.27-3.883-5.047-5.047c-0.778-1.164-1.164-1.555-1.55-1.941c-0.391-0.778-1.169-0.778-1.169-0.392
			c0,0.778-0.386,1.169-0.772,1.555l0,0v-6.602c0.386,0,0.386-0.386,0.772,0c0,0,0.778,0.386,1.169,0.778
			c0,0.386,0.386,1.164,0.772,1.555c0.392,0.386,1.941,2.714,2.719,3.883c0.778,0.772,9.321,8.93,11.263,10.093
			C124.063,149.302,125.226,150.467,125.618,150.858L125.618,150.858z M125.618,162.115v4.661c-1.169-0.777-2.333-1.164-2.333-1.55
			c0,0-1.164-0.392-1.555-0.778c-0.772-0.391-1.55-1.164-1.942-1.555v-0.386v-0.392c0-0.386,0.392,0,1.169-0.386
			c0.386,0,0.772-0.386,1.164-0.386c0.386,0,0.778,0.386,1.55,0.386C124.448,162.115,125.226,162.115,125.618,162.115
			L125.618,162.115z M105.811,171.823c0.386,0,0.386-0.386,0.778-0.386c0.386,0,0.386-0.778,0.386-1.164
			c0.391-0.778,0-1.941,0-3.105c0-0.777,0.391-2.333,0.391-2.333s0,0,0.386,0.778c0.386,0.386,0.778,1.555,0.778,2.719
			c0,1.55-0.392,3.105-0.392,3.105c0,1.164,0.778,1.941,1.555,2.333c0.778,0.386,2.328-0.392,2.328-0.778
			c0.392-0.392,0-0.778-0.386-1.169c-0.386-0.386-0.386-0.772,0-1.164c0.386-0.386,0.777-0.386,0.777-0.386
			c0.386,0.386,2.328,1.55,2.719,1.941c0.386,0.386,0.386,1.164,0.386,1.556c0,0.386,0,1.164,0.386,2.713
			c0,1.169,0.392,2.333,0.392,2.333c0,0.777,0.386,1.164,0.777,1.164c0.386,0,0.778,0,1.164,0s0.778,0,0.778,0
			c0.386,0,0.386-0.386,0.777-0.778c0-0.777-0.392-2.328-0.777-2.719c-0.392-0.386-0.778-1.164-1.164-1.55
			c0-0.392,0-0.778,0.386-1.164c0-0.392,0-0.392,0.386,0c0.392,0,0.777,0.386,1.555,1.164c1.556,1.164,2.719,1.164,2.719,1.164
			c2.328,0.386,2.328-1.556,2.328-1.556c0.392-3.883-1.941-4.661-1.941-5.047c-0.386-0.386-1.164-0.777-4.269-2.328
			c-3.105-1.555-3.105-2.333-3.105-2.333c-1.169-1.941-2.333-6.21-2.333-6.602c0-0.386,0-1.55,0-1.941
			c0-0.386-0.778-0.772-0.778-0.772c-1.55-0.778-1.941,0-2.328,0.772c-0.392,0.391-0.778,0.391-1.164,0
			c-0.392-0.386-0.778-0.772-0.778-1.942c0-1.164-0.778-3.491-0.778-3.883c0-0.386-0.777-0.778-0.777-0.778s-0.778-0.386-0.778,0
			c0,0.392-0.386,0.778-0.386,1.169V171.823L105.811,171.823z M99.209,175.712c0,0-0.386,1.55,0.386,3.491
			c0.391,0.778,1.555,1.556,1.941,2.333c0.392,1.164,0.777,2.328,1.555,3.492c0,0,0.386,0.392,0.778,0.778
			c0,0.386,0,0.777,0.386,1.164c0,0.392,0.777,0.392,0.777,0.778c0.392,0.386,0.392,0.778,0.392,1.164l0,0v-6.988
			c-0.392-0.386-0.777-0.777-1.169-0.777c-1.942-1.55-3.105-3.105-3.883-3.883C99.987,176.875,99.209,175.712,99.209,175.712
			L99.209,175.712z M105.811,132.607v6.603c-0.778,0.386-1.555,0.772-1.555,0.772c-0.386,0.392-1.164,3.497-1.164,3.883
			c0,0.392,0.778,2.719,0.392,3.497c-0.392,0.778-0.778,1.941-1.169,2.328c0,0-0.386,0-0.777,0c-0.386,0-1.164,0-1.55,0.778
			c-0.391,0.392-0.391,2.333-0.391,3.111c0,0.386,0.391,1.164,0.391,1.164s1.164-1.164,1.55-1.555
			c1.947-2.328,1.555-1.941,4.274-1.164c0,0,0.386-0.391,0.778-1.164v20.579c-0.392,0-0.778,0-1.556,0
			c-1.55,0-2.328,0.777-3.491,0.386c-1.169-0.386-0.778-0.772-0.778-1.55s1.164-2.333,1.164-3.105c0-0.777,0.777-2.719,0.777-4.274
			c0-1.164,0.386-3.492,0.386-4.269c0-0.778,0-1.164,0-1.164l-1.55-1.555c0,0-0.392,0-1.169,0.777
			c-0.777,0.778-1.164,0.386-2.328,3.883c0,0-0.392,1.55-1.164,2.328c-0.778,0.778-0.778,0.778-1.169,1.164
			c-0.386,0.391-0.772,1.169-1.164,1.555c-0.386,0.386-3.105,0.778-3.105,0.778c-0.386,0,0.778-1.556,1.164-2.333
			c0.392-0.772,0.778-1.942,1.164-2.328v-0.386c0-0.392,0-0.392,0-0.778c0,0,0-0.392,0.392-0.392c0,0,0.386-0.386,0.386-0.772
			c0-0.777,0-1.169,0-1.555s0-1.164,0-1.555c0-0.386-0.386-0.772-0.386-1.164c-0.392-1.941-0.778-5.047-1.164-8.152
			c0-0.391-0.392-1.169-0.777-1.555c0-0.386-0.392-1.164-0.392-1.555c-0.386-1.942-0.386-3.105-0.386-4.27l-0.386-1.164v-6.602l0,0
			c0,0,1.55,0,2.328,0s1.164,0.777,1.555,1.164c0.386,0,1.164,0.778,1.942,0.392c0.772,0,1.164-0.392,1.55-0.778
			c0,0,0.778-0.777,1.164,0c0.391,0.778,0.391,1.164,0,1.164c-0.386,0.386-0.386,0.778-0.386,0.778s-0.386,0.386-0.386,0.777
			c-0.778,1.164-2.719,4.269-2.719,8.152c0,0.778,0,1.941,0,2.719c0,0.777,0,1.55,0,2.328c0,1.164,0,1.941,0,3.111
			c0,0.386,0.386,0.772,0.386,1.164c0,0.386,0,0.778,0,1.55c0,0.392,0,1.169,0,1.556s0,1.164-0.386,1.941
			c0,0.386-0.392,1.164-0.392,1.555c0,0.386,0,0.386,0,0.772c0,0.392,0,0.778,0.392,0.778c0.386,0,0.386,0,0.386,0
			c0.392-0.386,1.164-2.328,1.555-4.661c0.386-2.714,0.778-4.661,0.778-4.661s0.386-2.328,0-3.105c0-0.778,0.386-0.778,0.386-0.778
			h0.777c0,0.392,0.386,0.392,0.386,0.392s1.169,0.386,1.556,0c0.386-0.392,0.386-1.164,0.386-1.555c0-0.778,0-3.105,0-4.27
			c0-0.777,0.392-1.555,0.778-2.333c0.392-0.772,0.778-1.164,1.164-1.941c0.777-1.55,0.777-2.328,1.555-3.491
			C105.425,133.771,105.425,132.993,105.811,132.607L105.811,132.607z M90.279,156.682c0.386-0.391,0.778-0.391,1.164-0.777
			c0-0.386-0.386-1.556-0.386-2.333c0-0.386-0.392-0.386-0.392-0.772v3.883H90.279z M90.279,152.022
			c0-0.391,0.386-0.391,0.386-0.777s0-0.386-0.386-0.778V152.022z M90.279,131.829v6.602c-0.391-1.555-0.391-2.719-0.777-3.105
			c0-0.777,0-1.941-0.386-2.333c-0.392-0.386,0-1.164,0-1.55C89.502,131.438,89.888,131.438,90.279,131.829L90.279,131.829z
			 M90.279,150.467v1.555v0.386l0,0v3.883l-0.391,0.391c-0.386,0.778-0.386,1.55-0.386,2.719c0,1.164-0.386,3.492,0,3.492
			c0,0.392,0,1.164,0,1.555c0,0.386-0.386,0.778-1.164,0.778c-0.392,0-1.555,0-1.941,0c-0.392,0-0.778,0-0.778,0
			c-0.777,0.386-1.555,0-1.941,0c-0.392,0-0.778,0.386-1.164,0.386c-0.392,0-0.392-1.164-0.392-1.555
			c0.392-0.772,0.777-1.164,1.164-2.328c0.392-0.777,0.392-1.164,0.392-1.941c0.386-0.777,0.386-1.555,0.386-2.328
			c0,0,0-0.392,0-1.169c0-0.386,0.392-1.164,0-1.55c0-0.392-0.778-0.392-1.164-0.777l0,0c0,0-0.386,0-0.777-0.386
			c-0.778-0.778-1.942-0.778-2.328-1.556c-0.392-0.391,0-1.164,0-1.555c0-0.386,0-0.778,0.777-0.778c0.386,0,1.942,0,2.328,0
			c0.392,0,1.164-0.386,1.556-0.386c0.386,0,1.941-0.386,2.328,0c0,0,0.777,0.386,1.164,0.778c0.392,0,0.392-0.392,0.392,0
			c0.386,0,0.778,0,1.164,0.386C89.502,150.467,89.888,150.467,90.279,150.467z"/>
		<path fill="#005BAC" d="M390.451,98.823c0.386,0.772,0.772,2.328,1.164,2.714c0,0.392,1.164,0.778,1.941,1.941
			c0.386,0.778,0.386,1.941,0.777,2.719c0,0.778,0.772,1.555,0.772,1.941c0.392,1.556,0.777,5.438,0,5.825
			c-0.386,0-1.164-0.386-1.941,0c-0.772,0-1.55,0.392-2.328,0.392V98.823H390.451z M390.451,84.842v-3.105c0.772,0,1.55,0,1.941,0
			c0.387,0,1.55,0,2.328-0.392c0.777,0,1.163-0.772,1.555-0.772c0.387,0,0.772,0,1.164,0c0.387,0,0.778,0,1.164,0
			s0.386-0.391,0.777-0.391c0.387-0.386,0.387-0.778,0.387-0.778s0-0.386-0.387-0.772c0-0.392,0-0.392-0.392-0.777c0,0,0,0,0-0.392
			l0,0c0,0,0,0,0.392,0c0.387,0,1.164,0.777,1.164,1.169c0.386,0.386,1.164,1.941,1.556,2.328c0,0.386-0.392,0.778-0.778,1.164
			c-0.392,0-1.555,0-2.719,0.392c-0.386,0-1.164,0-1.164,0.386c-0.392,0.386-1.164,0.386-1.941,0.777
			c-0.777,0.386-1.164,1.164-1.941,1.55C392.393,84.455,391.224,84.842,390.451,84.842L390.451,84.842z M390.451,77.462
			c0.772-0.386,1.55-1.164,1.941-1.164c0.772-0.386,0.387-1.164,0.772-1.941c0.392-0.778,1.169-1.55,1.169-1.55
			c0.772-1.169,0.387-2.333,0.387-2.719c0-0.778-1.941-3.883-2.72-5.052c-0.777-1.164-1.164-2.714-1.55-3.105
			c0,0,0-0.386-0.392-0.386c0,0,0,0-0.386,0v15.918H390.451z M388.51,96.882c0,0,1.164,0.772,1.55,1.164
			c0,0,0.392,0.386,0.392,0.778v15.141h-0.777c-1.164,0-1.941,0.778-2.72,0.778c-0.777-0.386-1.163-0.386-1.163-1.55
			c0-0.778,1.941-5.052,1.941-6.994C388.118,101.929,388.51,98.432,388.51,96.882L388.51,96.882z M390.451,61.929
			C390.451,61.929,390.06,61.929,390.451,61.929c-0.392,0-0.777,0-0.777,0c-0.392,0.392-1.556,0.392-1.941,1.164
			c-0.778,0.392-0.392,1.941-0.392,1.941c0.392,1.555,0,3.11,0,3.883c-0.387,0.778-1.164,3.111-1.941,4.661
			c-0.772,1.556-3.105,5.052-4.27,6.603c-1.164,1.555-2.719,1.164-3.497,1.555c-0.777,0-1.941,0-5.047,0s-10.094-1.164-11.263-1.164
			c-0.777,0-1.55-1.169-2.328-1.169c-0.777-0.386-1.163,0.392-1.555,0.778c-0.387,0.391-0.778,0.391-0.778,0.777
			c0,1.164,0.778,2.719,1.17,3.883c0.772,1.555,1.163,2.719,2.327,3.497c1.164,0.778,2.333,0.386,4.661,0
			c1.941-0.391,2.719-0.391,3.883-0.391s4.661-0.778,5.824-0.778c0.778,0,0.778,0.778,0.778,0.778
			c-0.392,0.777-2.333,3.11-3.884,3.883c-1.555,0.778-5.438,1.555-6.988,2.333c-1.555,0.778-4.274,1.164-6.602,1.164
			c-2.333,0.386-5.438,0.777-6.217,0.777c-0.777,0-1.163,0-1.55-0.392c-0.392,0-0.777,0.778-0.392,0.778
			c0.778,0,3.497,0.778,5.438,1.164c1.941,0.392,2.72,0.778,6.211,1.942c3.497,1.169,5.052,0.777,5.824,0.392
			c0.778-0.392,1.941-0.392,2.72-0.778c0.777-0.386,2.719-0.386,2.719-0.386c1.941,0,3.497-1.169,3.883-1.941
			c0.778-0.778,1.556-1.555,1.556-2.333c0.387-0.386,1.55-2.719,2.328-3.492c0.777-0.777,1.941-2.719,2.333-3.11
			c0.386-0.386,1.55-1.164,2.327-1.55c0.387,0,0.778-1.169,1.941-1.555c0.778-0.778,2.328-1.164,3.105-1.556
			c0.392,0,0.777,0,1.556-0.386v-3.105c-0.392,0-0.778,0-0.778,0c-0.777,0-1.163,0-1.163,0s0-0.778,0.386-1.164
			c0-0.392,0.392-1.169,0.777-1.941c0-0.392,0.387-0.392,0.778-0.778V61.929H390.451z"/>
	</g>
</g>
</svg>
